<?xml version="1.0" encoding="UTF-8" standalone="no"?>
<!-- Uploaded to: SVG Repo, www.svgrepo.com, Generator: SVG Repo Mixer Tools -->

<svg
   width="800px"
   height="800px"
   viewBox="0 0 192 192"
   fill="none"
   version="1.1"
   id="svg1"
   sodipodi:docname="dolphin.svg"
   inkscape:version="1.4.2 (ebf0e940d0, 2025-05-08)"
   xmlns:inkscape="http://www.inkscape.org/namespaces/inkscape"
   xmlns:sodipodi="http://sodipodi.sourceforge.net/DTD/sodipodi-0.dtd"
   xmlns="http://www.w3.org/2000/svg"
   xmlns:svg="http://www.w3.org/2000/svg">
  <defs
     id="defs1" />
  <sodipodi:namedview
     id="namedview1"
     pagecolor="#ffffff"
     bordercolor="#000000"
     borderopacity="0.25"
     inkscape:showpageshadow="2"
     inkscape:pageopacity="0.0"
     inkscape:pagecheckerboard="0"
     inkscape:deskcolor="#d1d1d1"
     inkscape:zoom="2.2171208"
     inkscape:cx="297.23233"
     inkscape:cy="373.2318"
     inkscape:window-width="1916"
     inkscape:window-height="1034"
     inkscape:window-x="0"
     inkscape:window-y="0"
     inkscape:window-maximized="1"
     inkscape:current-layer="svg1" />
  <path
     fill="#000000"
     d="M169.978 117.882c-7.537-13.914-14.018-23.86-24.817-33.963-3.472-3.249-6.763-6.152-10.187-8.758-.001 0-.001 0 0 0v-.002l-.075-.054a29.742 29.742 0 0 1-.185-.14c-1.272-.983-6.67-5.527-4.751-10.544 1.344-3.518 6.666-5.792 10.335-6.976.993-.32.987-1.646-.042-1.815-2.723-.448-6.901-.845-12.312-.498-8.991.577-17.12 5.567-19.369 6.797a.957.957 0 0 1-.724.075c-5.047-1.428-10.79-2.69-17.478-3.826-23.713-4.026-43.782 2.391-53.853 9.385-13.2 9.167-12.834 17.709-13.922 21.981-.783 3.075-8.746 9.181-6.04 12.509 1.69 2.075 7.309-.743 11.842-2.609 4.766-1.961 5.134-3.028 18.16-4.973 5.718-.854 11.723-1.127 16.341-1.184.399-.005.76.222.936.58 1.99 4.03 6.467 11.393 13.958 15.015 6.51 3.148 14.013 4.345 18.851 4.798 1.112.104 1.492-1.427.516-1.971-2.47-1.376-5.481-3.314-7.786-5.62-3.183-3.185-3.953-8.017-4.12-10.798 0-.015.013-.027.028-.026 7.69 1.463 14.407 2.518 30.472 8.674 6.266 2.401 11.646 5.289 15.686 7.751 1.048.639 2.145-.635 1.236-1.462-4.557-4.148-11.292-9.412-19.796-13.61-13.68-6.75-24.91-10.085-40.472-10.84-13.83-.672-24.701.648-28.282 1.164-.648.094-1.194-.424-1.013-1.054.69-2.397 3.278-7.803 12.944-12.34 11.166-5.241 28.732-6.119 48.893-.972 28.482 7.27 38.197 19.65 50.448 32.444 7.448 7.777 14.321 18.59 18.846 26.431.624 1.083 2.129.42 1.667-.741-1.543-3.88-3.535-8.394-5.935-12.828Z"
     id="path1"
     style="fill:#ffffff;fill-opacity:1" />
  <path
     style="fill:#e6e6e6;stroke-width:1.67715"
     d="m 722.51597,539.23646 c -14.44877,-23.8774 -40.76181,-62.35914 -53.24449,-77.86787 -15.15103,-18.82397 -52.59155,-58.22927 -75.24226,-79.19082 -42.36519,-39.20581 -90.6584,-63.76429 -159.72188,-81.22315 -45.6095,-11.52983 -100.21516,-16.17254 -138.17015,-11.74758 -55.37987,6.45643 -99.22503,29.8302 -114.34857,60.95899 -5.05375,10.40214 -3.56059,13.67424 5.66586,12.41607 40.64765,-5.54292 123.40769,-5.72486 157.19961,-0.34557 66.71664,10.62051 137.38762,41.24555 187.84067,81.40012 17.75403,14.13008 21.29855,17.91595 18.96169,20.25281 -1.22282,1.22283 -4.2968,0.19213 -10.12818,-3.39594 -24.90269,-15.32279 -78.87646,-37.40934 -121.16035,-49.57993 -18.88559,-5.43584 -57.86,-14.26789 -62.96192,-14.26789 -3.15792,0 -3.21118,6.36259 -0.14951,17.86132 5.18302,19.46603 14.7612,31.11763 38.37828,46.6861 5.61627,3.70228 10.26177,7.48613 10.32333,8.40856 0.54286,8.13479 -64.58009,-6.83968 -87.07381,-20.02187 -16.79696,-9.84368 -33.57543,-27.62041 -45.8401,-48.56748 l -7.75416,-13.24345 -25.20748,1.04288 c -26.90783,1.11323 -64.05126,5.99134 -84.92545,11.15341 -7.01679,1.73519 -24.54042,8.14604 -38.94141,14.24632 -35.691792,15.11906 -48.091162,16.24756 -48.091162,4.37689 0,-4.98025 7.152178,-17.22249 18.125706,-31.02543 6.23733,-7.84557 7.876703,-11.72529 12.000352,-28.39988 7.224564,-29.21361 16.977694,-45.04789 40.247564,-65.34226 43.71201,-38.12257 124.73304,-60.36583 199.61697,-54.80219 31.72927,2.35738 55.96562,6.62575 105.09961,18.50957 8.44571,2.04272 8.86448,1.9617 19.28721,-3.73191 31.58666,-17.25484 54.67107,-23.2389 88.64146,-22.97813 38.82762,0.29806 43.09034,2.80219 21.06733,12.37597 -21.8006,9.4771 -31.08434,18.70918 -32.38069,32.20052 -1.4798,15.40058 4.51448,23.81777 34.75956,48.80947 25.49921,21.07016 59.81835,55.82212 75.71108,76.66591 27.96897,36.68215 60.82341,93.19475 77.77499,133.77999 3.49491,8.36748 4.25813,11.87447 2.88336,13.24924 -1.37476,1.37476 -3.55665,-0.91824 -8.24306,-8.66279 z"
     id="path2"
     transform="scale(0.24)" />
  <path
     style="fill:#ffffff;stroke-width:0.569;fill-opacity:1;stroke-dasharray:none"
     d="m 727.34564,545.81274 c -0.76627,-1.01709 -5.18267,-7.86642 -9.81427,-15.22074 -13.92746,-22.11489 -34.81457,-52.51663 -45.54926,-66.29809 -17.61326,-22.6124 -65.23417,-72.10439 -87.91669,-91.37099 -39.90254,-33.89335 -86.43353,-56.35992 -149.42498,-72.14691 -52.89971,-13.25778 -112.13686,-17.00681 -153.2702,-9.70023 -43.16908,7.66819 -78.70274,26.57587 -94.97388,50.53619 -3.09578,4.55873 -7.36547,13.53366 -7.47842,15.71969 -0.20076,3.88567 -0.0307,4.2992 2.14093,5.20657 1.90777,0.79712 2.81521,0.79403 9.53074,-0.0324 23.11351,-2.84453 52.22398,-3.99381 90.49613,-3.57278 43.92158,0.48319 58.48416,1.843 86.5284,8.07978 37.63853,8.37048 78.87801,23.9883 112.62141,42.65092 21.32689,11.79536 37.57687,22.66875 56.04645,37.5025 12.88503,10.34854 17.40562,15.53573 14.50821,16.64757 -1.42219,0.54574 -3.12261,-0.15387 -9.95622,-4.09636 -26.70582,-15.4073 -73.88492,-34.9777 -112.39481,-46.62258 -18.76227,-5.67347 -51.55094,-13.60493 -66.20556,-16.0149 -5.71858,-0.94042 -5.93407,-0.93751 -6.68575,0.0905 -2.49756,3.41562 0.77549,19.79126 6.11318,30.58527 5.94888,12.02998 13.87564,20.15386 31.51758,32.30135 4.06835,2.80129 8.54922,6.11593 9.95749,7.36586 2.46826,2.19075 2.52071,2.3036 1.456,3.13289 -4.70765,3.66668 -42.53503,-3.85203 -68.59794,-13.63477 -9.4468,-3.54588 -14.73277,-6.07547 -20.35947,-9.74299 -17.33886,-11.30159 -31.63513,-27.54565 -45.95403,-52.21498 -2.15504,-3.71282 -4.29951,-6.89688 -4.76548,-7.07569 -1.19802,-0.45973 -31.68394,0.8629 -43.73615,1.89749 -19.93382,1.71115 -40.54599,4.57626 -57.41811,7.98117 -11.17062,2.25431 -23.52266,6.29055 -40.85706,13.35075 -38.528843,15.69257 -49.106355,18.1554 -53.355214,12.42308 -3.599002,-4.85558 0.874804,-14.7723 15.237276,-33.77522 6.237153,-8.25234 9.063791,-13.74942 11.264482,-21.90648 0.802092,-2.97302 2.395037,-8.86216 3.539879,-13.08698 4.823697,-17.80094 11.357467,-31.04947 21.045967,-42.67496 4.57581,-5.49064 16.26364,-16.83146 22.4671,-21.80005 28.72443,-23.00652 72.96042,-40.54888 120.62788,-47.83654 19.72816,-3.01615 26.53991,-3.48046 50.92545,-3.47123 17.86076,0.007 24.84215,0.22824 32.43297,1.02889 28.27226,2.98203 49.35404,6.77632 85.06542,15.31001 8.35603,1.99678 15.88382,3.48446 17.75008,3.50786 3.0529,0.0383 4.02516,-0.35938 16.78549,-6.86542 20.57598,-10.49097 33.07676,-15.07075 49.39186,-18.0952 12.04985,-2.23377 20.74282,-2.74565 41.17971,-2.42485 18.66023,0.29292 24.09763,0.80873 26.78857,2.54128 l 1.39536,0.89839 -2.10968,1.82368 c -1.16033,1.00302 -5.88503,3.56751 -10.49935,5.69887 -14.26386,6.58851 -19.48503,9.8221 -25.17514,15.59154 -6.1387,6.22429 -8.89616,13.73277 -8.37241,22.7978 0.52327,9.05677 3.75598,14.7743 14.32573,25.33722 3.76704,3.76461 11.71411,10.93325 17.66015,15.93033 13.38132,11.2457 14.36437,12.12214 28.73448,25.6182 11.62757,10.92034 30.9919,30.96201 39.83087,41.22414 25.61755,29.74214 61.98857,88.90921 82.89634,134.85288 7.5113,16.50577 9.69893,23.89798 7.07221,23.89798 -0.58875,0 -1.69744,-0.83217 -2.46372,-1.84925 z"
     id="path3"
     transform="scale(0.24)" />
</svg>
